Coordinates
version=1
nRows=14
nColumns=36
inDegrees=yes

Units are S.I. units (second, meters, Newtons, ...)
If the header above contains a line with 'inDegrees', this indicates whether rotational values are in degrees (yes) or radians (no).

endheader
time	pelvis_tilt	pelvis_list	pelvis_rotation	pelvis_tx	pelvis_ty	pelvis_tz	hip_flexion_r	hip_adduction_r	hip_rotation_r	knee_angle_r	knee_angle_r_beta	ankle_angle_r	subtalar_angle_r	mtp_angle_r	hip_flexion_l	hip_adduction_l	hip_rotation_l	knee_angle_l	knee_angle_l_beta	ankle_angle_l	subtalar_angle_l	mtp_angle_l	lumbar_extension	lumbar_bending	lumbar_rotation	arm_flex_r	arm_add_r	arm_rot_r	elbow_flex_r	pro_sup_r	arm_flex_l	arm_add_l	arm_rot_l	elbow_flex_l	pro_sup_l
      1.29000000	    -10.20915786	     -0.88077914	     -2.47243292	     -0.50708323	      1.10337983	     -0.57478168	     36.05841403	     -1.86466424	      3.81521036	     16.07925154	      0.28063588	    -28.18840658	     -9.20125413	     -6.27670912	     32.46535886	     -6.96135471	     -0.12574256	     13.22008332	      0.23073398	    -29.03674115	     -1.29684992	     -6.27670912	    -22.93767791	     -0.80008306	     -0.12561682	    -15.07783541	    -18.15518856	     -1.36084017	     55.06133394	    112.44338905	    -11.95632675	    -11.25285848	     -9.58479155	     53.40747883	    103.05695911
      1.30000000	     -9.29850522	     -0.83275992	     -2.38491488	     -0.49596301	      1.08047857	     -0.57447415	     35.18736841	     -1.98630197	      4.45856940	     15.75740644	      0.27501862	    -28.27240306	     -9.14139011	     -6.30428863	     31.69478743	     -7.07383956	      0.17688691	     13.25495465	      0.23134260	    -29.47083705	     -1.44700492	     -6.30428863	    -23.44664446	     -0.76593532	     -0.54108155	    -15.95330160	    -17.72485691	     -1.81800103	     54.50935154	    112.32705292	    -12.01812060	    -11.55729381	     -9.68708539	     52.81152648	    102.74896542
      1.31000000	     -8.44053784	     -0.83931338	     -2.26263244	     -0.48526277	      1.05667379	     -0.57398678	     34.56803631	     -2.01639476	      4.96175555	     15.98720566	      0.27902938	    -28.16207746	     -8.86305775	     -6.33773629	     31.21818363	     -7.24286722	      0.60382329	     13.94254234	      0.24334327	    -29.57053230	     -1.72373041	     -6.33773629	    -23.96767264	     -0.76106983	     -0.98198486	    -16.41575968	    -17.19408274	     -2.14517475	     53.80809498	    111.81409395	    -11.64269252	    -11.98283374	     -9.77669801	     52.29445491	    102.16445528
      1.32000000	     -7.69747576	     -0.84085383	     -2.04931689	     -0.47490065	      1.03186547	     -0.57362380	     34.39643539	     -2.09211259	      4.98710387	     17.05598502	      0.29768310	    -27.63533543	     -8.32458453	     -6.41366814	     31.10420438	     -7.29979656	      1.36739308	     15.27691140	      0.26663240	    -29.59458819	     -2.90240225	     -6.41366814	    -24.44372540	     -0.82122126	     -1.24894518	    -16.56777099	    -16.52755015	     -2.58846651	     52.64170830	    111.47692287	    -10.56380063	    -12.62444734	     -9.32011166	     51.52671132	    101.31723636
      1.33000000	     -6.74341500	     -0.97138711	     -1.81137130	     -0.46495603	      1.00634618	     -0.57305261	     34.21166726	     -2.04438284	      4.50834902	     18.59792162	      0.32459497	    -27.65104865	     -7.44161625	     -6.46594321	     31.09628840	     -7.54978685	      1.92864887	     17.09661955	      0.29839230	    -30.04048287	     -3.12839696	     -6.46594321	    -25.30514527	     -0.80369782	     -1.77308052	    -16.04279079	    -16.02048783	     -2.52773286	     51.50767016	    110.57236779	     -9.21036993	    -13.28568331	     -9.25440890	     51.10832348	    100.38407983
      1.34000000	     -6.10455939	     -0.95529974	     -1.48243250	     -0.45588221	      0.97927499	     -0.57239701	     34.74871316	     -2.14365254	      3.90975369	     20.77680760	      0.36262370	    -27.97753057	     -6.49809819	     -6.60826552	     31.64954386	     -7.49559099	      3.11218655	     19.30663927	      0.33696442	    -30.61325274	     -4.72141093	     -6.60826552	    -25.87220221	     -0.93548865	     -2.56686104	    -14.93904328	    -15.55072864	     -2.01959870	     49.85269677	    112.16900243	     -7.47689531	    -14.20424197	     -8.94752561	     50.53470135	    100.27493701
      1.35000000	     -5.61231894	     -1.01566756	     -1.14484823	     -0.44779713	      0.95111598	     -0.57147703	     35.75079217	     -2.05201225	      3.11124304	     23.93117706	      0.41767783	    -26.43269661	     -7.05166927	     -6.73233013	     32.76316555	     -7.46395160	      4.31021353	     23.13745819	      0.40382483	    -25.93162384	     -5.97721558	     -6.73233013	    -26.44934321	     -0.99221358	     -3.40119718	    -13.40261678	    -15.26796688	     -0.82826891	     48.37242848	    111.77854142	     -5.22116417	    -15.33719489	     -8.13972055	     49.96569212	     99.42455408
      1.36000000	     -5.36101475	     -1.12918518	     -0.73795267	     -0.44057525	      0.92146402	     -0.57057045	     37.43492890	     -1.87232091	      1.67995586	     29.13708681	      0.50853810	    -17.92019872	     -9.19239454	     -6.87123715	     34.83475922	     -7.33117353	      5.36133190	     29.69147395	      0.51821398	    -13.44774912	     -6.87742388	     -6.87123715	    -26.83075143	     -0.98019914	     -4.20575102	    -11.63328897	    -14.95123923	      0.41579689	     46.98742570	    108.60605175	     -2.36915812	    -16.49162997	     -7.14131336	     49.42284133	     96.57690590
      1.37000000	     -5.34659210	     -1.23265126	     -0.49245150	     -0.43469845	      0.89072724	     -0.56920005	     39.95789522	     -1.45758257	      0.48075278	     36.08463865	      0.62979575	     -4.78512353	    -12.37755872	     -7.04500087	     37.97291939	     -7.37511904	      5.56245710	     37.98390151	      0.66294414	      0.92541807	     -6.30154366	     -7.04500087	    -27.18967581	     -1.07487992	     -4.76467941	     -9.83887373	    -14.48471898	      0.50890163	     45.95656947	    112.84293170	      0.98477398	    -17.66548371	     -6.46366662	     48.70358883	     99.15555386
      1.38000000	     -6.00595687	     -1.48029240	     -0.30184906	     -0.43144307	      0.86038698	     -0.56753531	     44.24586016	     -0.76757861	      0.11396332	     43.91113773	      0.76639393	      4.22290431	    -15.80701183	     -7.12253295	     42.73914957	     -7.67286905	      5.66500006	     46.49710403	      0.81152756	      9.99487250	     -5.58431617	     -7.12253295	    -27.18407741	     -1.02725322	     -5.31194598	     -7.29010122	    -14.07925522	      1.64093170	     44.79189526	    111.90238894	      5.22678346	    -18.97072422	     -4.90743912	     47.64606308	     98.32006581
      1.39000000	     -7.34937807	     -1.99659854	     -0.09686945	     -0.43112959	      0.83160945	     -0.56593651	     50.55942449	      0.18222612	      0.78737160	     52.48647066	      0.91606173	      6.92602959	    -18.77320958	     -7.15522670	     49.05755669	     -7.85866167	      6.76918145	     54.79674190	      0.95638357	     12.85996656	     -7.30811616	     -7.15522670	    -27.02893888	     -0.67920996	     -5.99961271	     -4.03606563	    -13.33916614	      2.02594117	     43.84806946	    109.59411580	      9.88343423	    -19.78492000	     -4.71606389	     47.19889868	     96.59335909
      1.40000000	     -8.73577606	     -3.35543218	      0.13568337	     -0.43176726	      0.80517624	     -0.56476741	     57.20273114	      1.57744299	      0.98131073	     60.59901795	      1.05765239	      4.93659337	    -20.98010555	     -7.16703722	     56.04607395	     -8.37778152	      9.00678701	     63.20955256	      1.10321481	     13.53035284	     -7.12393857	     -7.16703722	    -27.03957957	      0.50900175	     -6.05970882	     -0.15223851	    -13.06140748	      3.37400450	     41.76206227	    110.38742240	     15.81045502	    -20.41116320	     -3.12134522	     44.98145641	     97.15052569
      1.41000000	     -9.12526643	     -4.67667993	      0.50324128	     -0.43156836	      0.78206062	     -0.56472916	     61.83532056	      2.47789363	      0.51933683	     67.23565121	      1.17348349	      5.01165693	    -22.10844431	     -7.18293044	     61.30628355	     -8.52463417	     11.14034878	     70.46522033	      1.22985010	     14.60333869	     -6.79063985	     -7.18293044	    -28.45810685	      1.59502950	     -5.70853065	      3.21775557	    -13.02108158	      4.13410021	     41.36426164	    111.24847337	     22.16615926	    -20.79208545	     -0.82139761	     43.81713924	     98.07492521
      1.42000000	     -9.04248100	     -5.69375076	      1.36068716	     -0.43064814	      0.76089359	     -0.56600812	     64.57960634	      2.41910725	     -0.49313820	     72.09937036	      1.25837140	      7.41308828	    -22.44636731	     -7.18704279	     64.95746054	     -8.28598599	     12.50379549	     75.95245312	      1.32562038	     16.51516861	     -6.16856255	     -7.18704279	    -30.38507446	      2.71055181	     -5.79136647	      6.49916105	    -13.22056203	      4.57127740	     41.82195293	    112.45948914	     28.53589666	    -20.80258029	      1.29385771	     42.90151831	     99.35273186
